<?xml version="1.0" encoding="utf-8"?>
<!-- Svg Vector Icons : http://www.onlinewebfonts.com/icon -->
<!DOCTYPE svg PUBLIC "-//W3C//DTD SVG 1.1//EN" "http://www.w3.org/Graphics/SVG/1.1/DTD/svg11.dtd">
<svg version="1.1" xmlns="http://www.w3.org/2000/svg" xmlns:xlink="http://www.w3.org/1999/xlink" x="0px" y="0px" viewBox="0 0 1000 1000" enable-background="new 0 0 1000 1000" xml:space="preserve">
<metadata> Svg Vector Icons : http://www.onlinewebfonts.com/icon </metadata>
<g><g transform="translate(0.000000,511.000000) scale(0.100000,-0.100000)" style="fill: #ff594f;"><path d="M4744.2,4999.1c-1302.4-102.3-2430.4-988.4-2849.1-2237.4c-130.2-388.4-153.5-565.2-167.5-1253.6L1716,884.9h-307c-346.5,0-576.8-41.9-723.3-125.6c-144.2-86.1-325.6-295.4-388.4-451.2l-53.5-132.6v-2128.1v-2128.1l53.5-132.6c62.8-155.8,244.2-365.2,388.4-451.2c220.9-127.9,88.4-125.6,4305-125.6c2714.2,0,3925.9,7,4023.6,25.6c302.3,55.8,576.8,274.5,688.4,548.9l53.5,134.9v2128.1V175.5l-55.8,139.5c-41.9,102.3-97.7,181.4-209.3,293c-111.6,111.6-190.7,167.5-293,209.3l-139.6,55.8l-3079.3,7l-3077,4.7l11.6,565.2c7,374.4,23.3,614,46.5,714c151.2,660.5,569.8,1176.8,1188.5,1465.2c314,148.8,441.9,174.4,862.9,174.4c318.6,0,397.7-7,558.2-53.5c565.2-162.8,1062.9-572.2,1309.4-1079.2c46.5-100,97.7-176.7,109.3-172.1c109.3,41.9,1072.2,418.6,1079.2,425.6c20.9,13.9-218.6,469.8-351.2,665.2c-193,283.8-576.8,665.2-853.6,848.9C6223.3,4866.6,5493.1,5059.6,4744.2,4999.1z M3267.3-519.9c432.6-200,518.6-753.5,169.8-1074.5c-146.5-134.9-279.1-181.4-488.4-167.4c-197.7,13.9-316.3,65.1-439.6,197.7c-141.9,148.8-172.1,225.6-172.1,448.9c0,227.9,39.5,325.6,190.7,469.8C2720.7-459.4,3027.7-405.9,3267.3-519.9z M7279.2-512.9c127.9-58.1,265.1-186.1,332.6-311.6c67.5-123.3,72.1-448.9,9.3-562.8c-125.6-232.6-316.3-358.2-565.2-374.4c-214-14-346.6,32.6-493.1,167.4c-348.9,321-262.8,874.5,169.8,1074.5C6886.2-447.8,7128.1-443.1,7279.2-512.9z M5983.8-2910.8c58.1-79.1,39.6-132.6-104.6-290.7c-386.1-421-1046.6-507-1521-195.4c-181.4,118.6-381.4,334.9-381.4,411.7c0,14,20.9,53.5,48.8,88.4l48.8,60.5l930.3-4.7l932.6-7L5983.8-2910.8z"/></g></g>
</svg>