<?xml version="1.0" encoding="utf-8"?>
<!-- Svg Vector Icons : http://www.onlinewebfonts.com/icon -->
<!DOCTYPE svg PUBLIC "-//W3C//DTD SVG 1.1//EN" "http://www.w3.org/Graphics/SVG/1.1/DTD/svg11.dtd">
<svg version="1.1" xmlns="http://www.w3.org/2000/svg" xmlns:xlink="http://www.w3.org/1999/xlink" x="0px" y="0px" viewBox="0 0 1000 1000" enable-background="new 0 0 1000 1000" xml:space="preserve">
<metadata> Svg Vector Icons : http://www.onlinewebfonts.com/icon </metadata>
<g><g transform="translate(0.000000,511.000000) scale(0.100000,-0.100000)" style="fill: #8bc53f;"><path d="M4645.7,4990.4C3350,4840.4,2278.3,3988.3,1850,2766.5c-150-426.1-197.8-797.8-197.8-1545.7V762.2l-145.7-37c-323.9-82.6-680.4-280.4-880.4-487C493.5,101.3,378.3-90,319.6-279.1c-47.8-150-47.8-167.4-47.8-1597.8c0-1341.3,2.2-1454.3,39.1-1573.9c119.6-386.9,371.7-667.4,787-876.1c573.9-289.1,2052.2-463,3945.6-463c1323.9,0,2363,78.3,3143.5,237c817.4,167.4,1317.4,528.3,1493.5,1078.3c47.8,152.2,47.8,160.9,47.8,1597.8c0,1430.4,0,1447.8-47.8,1597.8c-58.7,189.2-173.9,380.4-306.5,517.4c-200,206.5-556.5,404.4-876.1,487l-143.5,37l-13,619.6c-13.1,660.9-34.8,865.2-134.8,1208.7c-282.6,973.9-978.3,1758.7-1910.9,2154.4C5782.6,4962.2,5178.3,5053.5,4645.7,4990.4z M5460.9,3560c708.7-182.6,1241.3-710.9,1423.9-1413c47.8-182.6,56.5-269.6,65.2-695.7l13-487l-182.6,15.2c-1000,78.3-2493.5,78.3-3550,0L3037,964.4l13,487c13,519.6,37,671.7,139.1,928.2c241.3,606.5,815.2,1087,1432.6,1197.8c69.6,13,152.2,28.3,182.6,32.6C4917.4,3629.6,5300,3601.3,5460.9,3560z M3380.4-537.8c404.3-187,484.8-704.4,158.7-1004.4c-137-126.1-260.9-169.6-456.5-156.5c-184.8,13-295.6,60.9-410.9,184.8c-132.6,139.1-160.9,210.9-160.9,419.6c0,213,37,304.4,178.3,439.1C2869.6-481.3,3156.5-431.3,3380.4-537.8z M7130.4-531.3c119.6-54.3,247.8-173.9,310.9-291.3c63-115.2,67.4-419.6,8.7-526.1c-117.4-217.4-295.7-334.7-528.3-350c-200-13-323.9,30.4-460.9,156.5c-326.1,300-245.7,817.4,158.7,1004.4C6763-470.4,6989.1-466.1,7130.4-531.3z M6176.1-2657.4c87-87,80.4-150-32.6-300c-163-215.2-426.1-395.7-730.4-497.8c-95.7-32.6-182.6-41.3-423.9-41.3c-287,2.2-315.2,6.5-478.3,67.4c-287,110.9-491.3,256.5-654.4,471.7c-113,150-119.6,213.1-32.6,300l63,63h1113h1113L6176.1-2657.4z"/></g></g>
</svg>